# xmcd
# Copyright (C) 1995-1998 Ti Kan
#
# Track frame offsets:
#       150
#       26250
#       59296
#       96996
#       121316
#       158182
#       184124
#       216413
#       240913
#       272976
#       296519
#
# Disc length: 4477 seconds
#
# Revision: 0
# Processed by: cddbd v1.5.1PL0 Copyright (c) Steve Scherf et al.
# Submitted via: CD-Transfer v1.0
#
DISCID=9b117b0b
DTITLE=Metallica - St.anger
DYEAR=1900
DGENRE=
TTITLE0=Frantic
TTITLE1=St.anger
TTITLE2=Some Kind Of Monster
TTITLE3=Dirty Window
TTITLE4=Invisible Kid
TTITLE5=My World
TTITLE6=Shoot Me Again
TTITLE7=Sweet Amber
TTITLE8=The Unnamed Felling
TTITLE9=Prify
TTITLE10=All Within My Hands
EXTD=
EXTT0=
EXTT1=
EXTT2=
EXTT3=
EXTT4=
EXTT5=
EXTT6=
EXTT7=
EXTT8=
EXTT9=
EXTT10=
PLAYORDER=
